<svg xmlns="http://www.w3.org/2000/svg" width="16" height="15" viewBox="0 0 16 15">
  <metadata><?xpacket begin="﻿" id="W5M0MpCehiHzreSzNTczkc9d"?>
<x:xmpmeta xmlns:x="adobe:ns:meta/" x:xmptk="Adobe XMP Core 5.6-c138 79.159824, 2016/09/14-01:09:01        ">
   <rdf:RDF xmlns:rdf="http://www.w3.org/1999/02/22-rdf-syntax-ns#">
      <rdf:Description rdf:about=""/>
   </rdf:RDF>
</x:xmpmeta>
                                                                                                    
                                                                                                    
                                                                                                    
                                                                                                    
                                                                                                    
                                                                                                    
                                                                                                    
                                                                                                    
                                                                                                    
                                                                                                    
                                                                                                    
                                                                                                    
                                                                                                    
                                                                                                    
                                                                                                    
                                                                                                    
                                                                                                    
                                                                                                    
                                                                                                    
                                                                                                    
                           
<?xpacket end="w"?></metadata>
<defs>
    <style>
      .cls-1 {
        fill: #fff;
        fill-rule: evenodd;
      }
    </style>
  </defs>
  <path id="icon" class="cls-1" d="M1203,31a1.784,1.784,0,0,1-1,1h-8.5a0.5,0.5,0,0,0,0,1h7.5a1,1,0,1,1,0,2h-9a1,1,0,0,1-1-1V27.414s-1.06-1.062-2-2A1.242,1.242,0,0,1,1190.41,24c0.88,0.875,2,2,2,2H1204a1,1,0,0,1,1,1Zm-10.5,5a1.5,1.5,0,1,1-1.5,1.5A1.5,1.5,0,0,1,1192.5,36Zm8,0a1.5,1.5,0,1,1-1.5,1.5A1.5,1.5,0,0,1,1200.5,36Z" transform="translate(-1189 -24)"/>
</svg>
